{
	"asset":{
		"generator":"Khronos glTF Blender I/O v4.3.47",
		"version":"2.0"
	},
	"extensionsUsed":[
		"KHR_materials_clearcoat"
	],
	"scene":0,
	"scenes":[
		{
			"name":"Scene",
			"nodes":[
				0
			]
		}
	],
	"nodes":[
		{
			"mesh":0,
			"name":"DART",
			"scale":[
				0.01903473399579525,
				0.01903473399579525,
				0.01903473399579525
			]
		}
	],
	"materials":[
		{
			"doubleSided":true,
			"extensions":{
				"KHR_materials_clearcoat":{
					"clearcoatRoughnessFactor":0
				}
			},
			"name":"AR3DMat PBR Shiny Chrome",
			"pbrMetallicRoughness":{
				"baseColorTexture":{
					"index":0,
					"texCoord":1
				},
				"metallicFactor":0,
				"roughnessFactor":0
			}
		}
	],
	"meshes":[
		{
			"name":"DART",
			"primitives":[
				{
					"attributes":{
						"POSITION":0,
						"NORMAL":1,
						"TEXCOORD_0":2,
						"TEXCOORD_1":3
					},
					"indices":4,
					"material":0
				}
			]
		}
	],
	"textures":[
		{
			"sampler":0,
			"source":0
		}
	],
	"images":[
		{
			"mimeType":"image/jpeg",
			"name":"ShinyChrome_BaseColor",
			"uri":"ShinyChrome_BaseColor.jpg"
		}
	],
	"accessors":[
		{
			"bufferView":0,
			"componentType":5126,
			"count":72931,
			"max":[
				846.2893676757812,
				4976.12451171875,
				846.2041015625
			],
			"min":[
				-845.4864501953125,
				-13216.97265625,
				-845.5718994140625
			],
			"type":"VEC3"
		},
		{
			"bufferView":1,
			"componentType":5126,
			"count":72931,
			"type":"VEC3"
		},
		{
			"bufferView":2,
			"componentType":5126,
			"count":72931,
			"type":"VEC2"
		},
		{
			"bufferView":3,
			"componentType":5126,
			"count":72931,
			"type":"VEC2"
		},
		{
			"bufferView":4,
			"componentType":5125,
			"count":97380,
			"type":"SCALAR"
		}
	],
	"bufferViews":[
		{
			"buffer":0,
			"byteLength":875172,
			"byteOffset":0,
			"target":34962
		},
		{
			"buffer":0,
			"byteLength":875172,
			"byteOffset":875172,
			"target":34962
		},
		{
			"buffer":0,
			"byteLength":583448,
			"byteOffset":1750344,
			"target":34962
		},
		{
			"buffer":0,
			"byteLength":583448,
			"byteOffset":2333792,
			"target":34962
		},
		{
			"buffer":0,
			"byteLength":389520,
			"byteOffset":2917240,
			"target":34963
		}
	],
	"samplers":[
		{
			"magFilter":9729,
			"minFilter":9987
		}
	],
	"buffers":[
		{
			"byteLength":3306760,
			"uri":"DART15reduced%20.bin"
		}
	]
}
